<svg width="13" height="12" viewBox="0 0 13 12" fill="none" xmlns="http://www.w3.org/2000/svg">
<path d="M6.5 12C9.81371 12 12.5 9.31371 12.5 6C12.5 2.68629 9.81371 0 6.5 0C3.18629 0 0.5 2.68629 0.5 6C0.5 9.31371 3.18629 12 6.5 12Z" fill="#0098EA"/>
<path d="M8.54861 3.34875H4.4511C3.69771 3.34875 3.2202 4.16143 3.59923 4.81841L6.12806 9.20158C6.29308 9.48778 6.70663 9.48778 6.87165 9.20158L9.40099 4.81841C9.77951 4.16248 9.30199 3.34875 8.54912 3.34875H8.54861ZM6.126 7.88713L5.57526 6.82126L4.24639 4.44455C4.15873 4.29243 4.26701 4.09749 4.45058 4.09749H6.12548V7.88765L6.126 7.88713ZM8.75228 4.44403L7.42393 6.82177L6.87319 7.88713V4.09698H8.54809C8.73167 4.09698 8.83995 4.29191 8.75228 4.44403Z" fill="white"/>
</svg>
